# xmcd CD database file
#
# Track frame offsets:
#	150
#	22410
#	49912
#	70174
#	95429
#	138029
#	164114
#	186273
#	206742
#	232290
#
# Disc length: 3445 seconds
#
# Revision: 0
# Processed by: cddbd v1.5.2PL0 Copyright (c) Steve Scherf et al.
# Submitted via: CDex 1.70beta2
#
DISCID=9b0d730a
DTITLE=Sylvain Luc and Stefano Di Battista - Giu la Testa
DYEAR=2014
DGENRE=Jazz
TTITLE0=Sylvain Luc and Stefano Di Battista - I got a woman
TTITLE1=Sylvain Luc and Stefano Di Battista - Touch Her Soft Lips and Parts
TTITLE2=Sylvain Luc and Stefano Di Battista - Dingo Rock
TTITLE3=Sylvain Luc and Stefano Di Battista - Love theme for nata
TTITLE4=Sylvain Luc and Stefano Di Battista - Arrivederci
TTITLE5=Sylvain Luc and Stefano Di Battista - Giu la Testa
TTITLE6=Sylvain Luc and Stefano Di Battista - Sauvage
TTITLE7=Sylvain Luc and Stefano Di Battista - La chanson des jumelles
TTITLE8=Sylvain Luc and Stefano Di Battista - Otto e Mezzo
TTITLE9=Sylvain Luc and Stefano Di Battista - Fresh
EXTD=YEAR: 2014
EXTT0=
EXTT1=
EXTT2=
EXTT3=
EXTT4=
EXTT5=
EXTT6=
EXTT7=
EXTT8=
EXTT9=
PLAYORDER=
